<svg width="31" height="62" viewBox="0 0 31 62" fill="none" xmlns="http://www.w3.org/2000/svg">
<path d="M0 62V52.516L15.5991 27.3343H0.594883V17H30.6695V26.5494L15.3348 51.6657H31V62H0Z" fill="#F4F4F5"/>
<path d="M23.4667 13C21.4222 13 19.6667 12.381 18.2 11.1429C16.7333 9.86208 16 8.30377 16 6.46798C16 5.18719 16.3556 4.07719 17.0667 3.13794C17.7778 2.15601 18.7111 1.38752 19.8667 0.832516C21.0222 0.277507 22.2222 0 23.4667 0C24.8444 0 26.0889 0.29886 27.2 0.896561C28.3556 1.49426 29.2667 2.28408 29.9333 3.26602C30.6444 4.24795 31 5.31527 31 6.46798C31 7.74877 30.6222 8.88014 29.8667 9.86207C29.1556 10.844 28.2222 11.6125 27.0667 12.1675C25.9556 12.7225 24.7556 13 23.4667 13Z" fill="#F4F4F5"/>
</svg>
